<mxfile host="app.diagrams.net" modified="2024-06-21T02:06:58.576Z" agent="Mozilla/5.0 (Windows NT 10.0; Win64; x64) AppleWebKit/537.36 (KHTML, like Gecko) Chrome/126.0.0.0 Safari/537.36" etag="dHs4ETUcz7dnCdsHL2aD" version="24.6.0" type="device">
  <diagram name="Page-1" id="LNC-aLvASJatOr2xwepB">
    <mxGraphModel dx="1324" dy="1235" grid="0" gridSize="10" guides="1" tooltips="1" connect="1" arrows="1" fold="1" page="0" pageScale="1" pageWidth="850" pageHeight="1100" math="0" shadow="0">
      <root>
        <mxCell id="0" />
        <mxCell id="1" parent="0" />
        <mxCell id="3jTkvbO8ZYU8IUIbM6eA-1" value="INICIO" style="rounded=0;whiteSpace=wrap;html=1;" vertex="1" parent="1">
          <mxGeometry x="82" y="-54" width="160" height="80" as="geometry" />
        </mxCell>
        <mxCell id="3jTkvbO8ZYU8IUIbM6eA-2" value="" style="edgeStyle=none;orthogonalLoop=1;jettySize=auto;html=1;rounded=0;fontSize=12;startSize=8;endSize=8;curved=1;" edge="1" parent="1">
          <mxGeometry width="120" relative="1" as="geometry">
            <mxPoint x="161" y="33" as="sourcePoint" />
            <mxPoint x="163.5" y="143" as="targetPoint" />
            <Array as="points" />
          </mxGeometry>
        </mxCell>
        <mxCell id="3jTkvbO8ZYU8IUIbM6eA-11" value="" style="edgeStyle=none;curved=1;rounded=0;orthogonalLoop=1;jettySize=auto;html=1;fontSize=12;startSize=8;endSize=8;" edge="1" parent="1" source="3jTkvbO8ZYU8IUIbM6eA-3" target="3jTkvbO8ZYU8IUIbM6eA-10">
          <mxGeometry relative="1" as="geometry" />
        </mxCell>
        <mxCell id="3jTkvbO8ZYU8IUIbM6eA-3" value="ALTURA &amp;gt; 120 CM" style="rhombus;whiteSpace=wrap;html=1;" vertex="1" parent="1">
          <mxGeometry x="96" y="144" width="138" height="123" as="geometry" />
        </mxCell>
        <mxCell id="3jTkvbO8ZYU8IUIbM6eA-10" value="NO SE PUEDE SUBIR" style="whiteSpace=wrap;html=1;" vertex="1" parent="1">
          <mxGeometry x="-153" y="175.5" width="120" height="60" as="geometry" />
        </mxCell>
        <mxCell id="3jTkvbO8ZYU8IUIbM6eA-12" value="NO" style="text;strokeColor=none;fillColor=none;html=1;align=center;verticalAlign=middle;whiteSpace=wrap;rounded=0;fontSize=16;" vertex="1" parent="1">
          <mxGeometry x="7" y="175.5" width="60" height="30" as="geometry" />
        </mxCell>
        <mxCell id="3jTkvbO8ZYU8IUIbM6eA-14" style="edgeStyle=none;curved=1;rounded=0;orthogonalLoop=1;jettySize=auto;html=1;exitX=0;exitY=1;exitDx=0;exitDy=0;fontSize=12;startSize=8;endSize=8;" edge="1" parent="1" source="3jTkvbO8ZYU8IUIbM6eA-13">
          <mxGeometry relative="1" as="geometry">
            <mxPoint x="364" y="206" as="targetPoint" />
          </mxGeometry>
        </mxCell>
        <mxCell id="3jTkvbO8ZYU8IUIbM6eA-13" value="SI" style="text;strokeColor=none;fillColor=none;html=1;align=center;verticalAlign=middle;whiteSpace=wrap;rounded=0;fontSize=16;" vertex="1" parent="1">
          <mxGeometry x="247" y="175.5" width="60" height="30" as="geometry" />
        </mxCell>
        <mxCell id="3jTkvbO8ZYU8IUIbM6eA-17" value="" style="edgeStyle=none;curved=1;rounded=0;orthogonalLoop=1;jettySize=auto;html=1;fontSize=12;startSize=8;endSize=8;" edge="1" parent="1" source="3jTkvbO8ZYU8IUIbM6eA-15" target="3jTkvbO8ZYU8IUIbM6eA-16">
          <mxGeometry relative="1" as="geometry" />
        </mxCell>
        <mxCell id="3jTkvbO8ZYU8IUIbM6eA-15" value="SI SE PUEDE SUBIR" style="rounded=0;whiteSpace=wrap;html=1;" vertex="1" parent="1">
          <mxGeometry x="369" y="165.5" width="116" height="80" as="geometry" />
        </mxCell>
        <mxCell id="3jTkvbO8ZYU8IUIbM6eA-19" value="" style="edgeStyle=none;curved=1;rounded=0;orthogonalLoop=1;jettySize=auto;html=1;fontSize=12;startSize=8;endSize=8;" edge="1" parent="1" source="3jTkvbO8ZYU8IUIbM6eA-16" target="3jTkvbO8ZYU8IUIbM6eA-18">
          <mxGeometry relative="1" as="geometry" />
        </mxCell>
        <mxCell id="3jTkvbO8ZYU8IUIbM6eA-21" value="" style="edgeStyle=none;curved=1;rounded=0;orthogonalLoop=1;jettySize=auto;html=1;fontSize=12;startSize=8;endSize=8;" edge="1" parent="1" source="3jTkvbO8ZYU8IUIbM6eA-16" target="3jTkvbO8ZYU8IUIbM6eA-20">
          <mxGeometry relative="1" as="geometry" />
        </mxCell>
        <mxCell id="3jTkvbO8ZYU8IUIbM6eA-26" value="" style="edgeStyle=none;curved=1;rounded=0;orthogonalLoop=1;jettySize=auto;html=1;fontSize=12;startSize=8;endSize=8;" edge="1" parent="1" source="3jTkvbO8ZYU8IUIbM6eA-16" target="3jTkvbO8ZYU8IUIbM6eA-25">
          <mxGeometry relative="1" as="geometry" />
        </mxCell>
        <mxCell id="3jTkvbO8ZYU8IUIbM6eA-16" value="EDAD" style="rhombus;whiteSpace=wrap;html=1;rounded=0;" vertex="1" parent="1">
          <mxGeometry x="387" y="365.5" width="80" height="80" as="geometry" />
        </mxCell>
        <mxCell id="3jTkvbO8ZYU8IUIbM6eA-18" value="PAGA 7" style="whiteSpace=wrap;html=1;rounded=0;" vertex="1" parent="1">
          <mxGeometry x="369" y="507" width="120" height="60" as="geometry" />
        </mxCell>
        <mxCell id="3jTkvbO8ZYU8IUIbM6eA-20" value="PAGA 12" style="whiteSpace=wrap;html=1;rounded=0;" vertex="1" parent="1">
          <mxGeometry x="567" y="375.5" width="120" height="60" as="geometry" />
        </mxCell>
        <mxCell id="3jTkvbO8ZYU8IUIbM6eA-22" value="12 - 18" style="text;strokeColor=none;fillColor=none;html=1;align=center;verticalAlign=middle;whiteSpace=wrap;rounded=0;fontSize=16;" vertex="1" parent="1">
          <mxGeometry x="366" y="458" width="60" height="30" as="geometry" />
        </mxCell>
        <mxCell id="3jTkvbO8ZYU8IUIbM6eA-23" value="MAYOR 18" style="text;strokeColor=none;fillColor=none;html=1;align=center;verticalAlign=middle;whiteSpace=wrap;rounded=0;fontSize=16;" vertex="1" parent="1">
          <mxGeometry x="474" y="372" width="60" height="30" as="geometry" />
        </mxCell>
        <mxCell id="3jTkvbO8ZYU8IUIbM6eA-25" value="PAGA 5" style="whiteSpace=wrap;html=1;rounded=0;" vertex="1" parent="1">
          <mxGeometry x="167" y="375.5" width="120" height="60" as="geometry" />
        </mxCell>
        <mxCell id="3jTkvbO8ZYU8IUIbM6eA-28" value="MENOR 12" style="text;strokeColor=none;fillColor=none;html=1;align=center;verticalAlign=middle;whiteSpace=wrap;rounded=0;fontSize=16;" vertex="1" parent="1">
          <mxGeometry x="311" y="372" width="60" height="30" as="geometry" />
        </mxCell>
      </root>
    </mxGraphModel>
  </diagram>
</mxfile>
